<?xml version="1.0" encoding="utf-8"?>
<!-- Generator: Adobe Illustrator 24.1.2, SVG Export Plug-In . SVG Version: 6.00 Build 0)  -->
<svg version="1.1" id="Capa_1" xmlns="http://www.w3.org/2000/svg" xmlns:xlink="http://www.w3.org/1999/xlink" x="0px" y="0px"
	 viewBox="0 0 603 475" style="enable-background:new 0 0 603 475;" xml:space="preserve">
<style type="text/css">
	.st0{fill:#818AC2;}
</style>
<g>
	<path class="st0" d="M28.57,419.75c-1.35,0-2.71-0.46-3.81-1.41c-2.46-2.11-2.74-5.81-0.64-8.27l17.59-20.53
		c2.11-2.46,5.81-2.74,8.27-0.64c2.46,2.11,2.74,5.81,0.64,8.27l-17.59,20.53C31.87,419.06,30.23,419.75,28.57,419.75z"/>
</g>
<g>
	<path class="st0" d="M203.06,456.41c-2.46,0-4.74-1.55-5.56-4.01l-7.33-21.99c-1.02-3.07,0.64-6.39,3.71-7.42
		c3.07-1.02,6.39,0.64,7.42,3.71l7.33,21.99c1.02,3.07-0.64,6.39-3.71,7.42C204.3,456.31,203.67,456.41,203.06,456.41z"/>
</g>
<g>
	<path class="st0" d="M567.4,250.27c4.49-12.46,24.07-110.36,1.79-154.88c-7.72-15.43-18.66-21.22-26.72-23.35
		c-18.15-6.21-37.57,8.75-58.1,24.58c-14.04,10.82-31.51,24.3-41.06,23.34c-29.13-2.91-49.45-15.06-48.93-21.83
		c4.25-55.21-7.6-66.06-11.5-69.62c-4.85-4.44-11.11-6.29-17.64-5.21c-8.23,1.37-17.74,8.27-38.45,23.73
		c-33.16,24.75-88.65,66.18-153.35,83.56c-6.38,1.71-12.57,3.37-18.55,4.97C62,160.39,15.38,172.85,11.78,208.84
		c-1.75,17.49,14.5,37.45,51.13,62.81c14.91,10.32,35.56,23.77,46.31,30.19c2.13,1.27,4.84,1.02,6.71-0.61l15.18-13.21
		c0.82-0.71,0.72-2-0.21-2.56c-7.24-4.39-34.13-20.66-53.98-34.41c-40.32-27.95-40.36-39.61-40.35-39.72
		c1.88-18.84,50.76-31.9,124.74-51.68c6-1.6,12.19-3.26,18.58-4.98c69.31-18.62,127.2-61.84,161.79-87.66
		c9.48-7.07,20.01-14.94,25.45-18c2.28,5.88,4.36,21.37,2.38,47.21c-2.17,28.24,35.44,44.96,71.3,48.55
		c19.39,1.95,39.41-13.48,58.76-28.4c8.71-6.71,16.93-13.06,24.13-17.07c8.13-4.54,10.72-3.65,10.75-3.64l0.71,0.26l0.73,0.18
		c2.69,0.65,6.71,2.36,10.58,9.64c7.52,14.14,10.04,41.35,7.1,76.63c-2.47,29.66-8,55.04-9.39,58.84
		c-4.03,9.54-0.25,18.91,3.07,27.17c1.83,4.55,3.71,9.22,4.02,13.17c-7.79,2.29-31.32,5.8-102.2,6.63
		c-56.92,0.67-127.02-0.48-194.81-1.59l-16.55-0.27c-1.92-0.03-3.81-0.05-5.69-0.05c-137.11,0-183.15,81.47-185.07,84.98
		c-3.3,6.04-1.07,13.61,4.97,16.91c1.9,1.03,3.94,1.52,5.96,1.52c4.41,0,8.69-2.35,10.95-6.5c0.4-0.74,41.82-74.03,168.47-71.95
		l16.55,0.27c283.51,4.64,315.77,0.12,321.18-19.72c3.44-12.6-1.24-24.23-4.66-32.73C569.24,256.23,567.54,252.01,567.4,250.27z"/>
</g>
<path class="st0" d="M202.17,401.66c-6.4-40-35.84-74.36-36-74.51l-20.66,11.93c0.49,2.05,26.9,34.3,32.05,66.52
	c0.98,6.13,6.28,10.5,12.29,10.5c0.65,0,1.32-0.05,1.98-0.16C198.63,414.84,203.26,408.45,202.17,401.66z"/>
</svg>
